<svg width="223" height="281" viewBox="0 0 223 281" fill="none" xmlns="http://www.w3.org/2000/svg">
<path d="M7.19355 4.13235C7.19355 6.41459 5.58322 8.26471 3.59677 8.26471C1.61033 8.26471 0 6.41459 0 4.13235C0 1.85012 1.61033 0 3.59677 0C5.58322 0 7.19355 1.85012 7.19355 4.13235Z" fill="#A6A6A6"/>
<path d="M28.7742 4.13235C28.7742 6.41459 27.1639 8.26471 25.1774 8.26471C23.191 8.26471 21.5806 6.41459 21.5806 4.13235C21.5806 1.85012 23.191 0 25.1774 0C27.1639 0 28.7742 1.85012 28.7742 4.13235Z" fill="#A6A6A6"/>
<path d="M50.3548 4.13235C50.3548 6.41459 48.7445 8.26471 46.7581 8.26471C44.7716 8.26471 43.1613 6.41459 43.1613 4.13235C43.1613 1.85012 44.7716 0 46.7581 0C48.7445 0 50.3548 1.85012 50.3548 4.13235Z" fill="#A6A6A6"/>
<path d="M71.9355 4.13235C71.9355 6.41459 70.3252 8.26471 68.3387 8.26471C66.3523 8.26471 64.7419 6.41459 64.7419 4.13235C64.7419 1.85012 66.3523 0 68.3387 0C70.3252 0 71.9355 1.85012 71.9355 4.13235Z" fill="#A6A6A6"/>
<path d="M93.5161 4.13235C93.5161 6.41459 91.9058 8.26471 89.9194 8.26471C87.9329 8.26471 86.3226 6.41459 86.3226 4.13235C86.3226 1.85012 87.9329 0 89.9194 0C91.9058 0 93.5161 1.85012 93.5161 4.13235Z" fill="#A6A6A6"/>
<path d="M115.097 4.13235C115.097 6.41459 113.486 8.26471 111.5 8.26471C109.514 8.26471 107.903 6.41459 107.903 4.13235C107.903 1.85012 109.514 0 111.5 0C113.486 0 115.097 1.85012 115.097 4.13235Z" fill="#A6A6A6"/>
<path d="M136.677 4.13235C136.677 6.41459 135.067 8.26471 133.081 8.26471C131.094 8.26471 129.484 6.41459 129.484 4.13235C129.484 1.85012 131.094 0 133.081 0C135.067 0 136.677 1.85012 136.677 4.13235Z" fill="#A6A6A6"/>
<path d="M158.258 4.13235C158.258 6.41459 156.648 8.26471 154.661 8.26471C152.675 8.26471 151.065 6.41459 151.065 4.13235C151.065 1.85012 152.675 0 154.661 0C156.648 0 158.258 1.85012 158.258 4.13235Z" fill="#A6A6A6"/>
<path d="M179.839 4.13235C179.839 6.41459 178.228 8.26471 176.242 8.26471C174.255 8.26471 172.645 6.41459 172.645 4.13235C172.645 1.85012 174.255 0 176.242 0C178.228 0 179.839 1.85012 179.839 4.13235Z" fill="#A6A6A6"/>
<path d="M201.419 4.13235C201.419 6.41459 199.809 8.26471 197.823 8.26471C195.836 8.26471 194.226 6.41459 194.226 4.13235C194.226 1.85012 195.836 0 197.823 0C199.809 0 201.419 1.85012 201.419 4.13235Z" fill="#A6A6A6"/>
<path d="M223 4.13235C223 6.41459 221.39 8.26471 219.403 8.26471C217.417 8.26471 215.806 6.41459 215.806 4.13235C215.806 1.85012 217.417 0 219.403 0C221.39 0 223 1.85012 223 4.13235Z" fill="#A6A6A6"/>
<path d="M7.19355 28.9265C7.19355 31.2087 5.58322 33.0588 3.59677 33.0588C1.61033 33.0588 0 31.2087 0 28.9265C0 26.6442 1.61033 24.7941 3.59677 24.7941C5.58322 24.7941 7.19355 26.6442 7.19355 28.9265Z" fill="#A6A6A6"/>
<path d="M28.7742 28.9265C28.7742 31.2087 27.1639 33.0588 25.1774 33.0588C23.191 33.0588 21.5806 31.2087 21.5806 28.9265C21.5806 26.6442 23.191 24.7941 25.1774 24.7941C27.1639 24.7941 28.7742 26.6442 28.7742 28.9265Z" fill="#A6A6A6"/>
<path d="M50.3548 28.9265C50.3548 31.2087 48.7445 33.0588 46.7581 33.0588C44.7716 33.0588 43.1613 31.2087 43.1613 28.9265C43.1613 26.6442 44.7716 24.7941 46.7581 24.7941C48.7445 24.7941 50.3548 26.6442 50.3548 28.9265Z" fill="#A6A6A6"/>
<path d="M71.9355 28.9265C71.9355 31.2087 70.3252 33.0588 68.3387 33.0588C66.3523 33.0588 64.7419 31.2087 64.7419 28.9265C64.7419 26.6442 66.3523 24.7941 68.3387 24.7941C70.3252 24.7941 71.9355 26.6442 71.9355 28.9265Z" fill="#A6A6A6"/>
<path d="M93.5161 28.9265C93.5161 31.2087 91.9058 33.0588 89.9194 33.0588C87.9329 33.0588 86.3226 31.2087 86.3226 28.9265C86.3226 26.6442 87.9329 24.7941 89.9194 24.7941C91.9058 24.7941 93.5161 26.6442 93.5161 28.9265Z" fill="#A6A6A6"/>
<path d="M115.097 28.9265C115.097 31.2087 113.486 33.0588 111.5 33.0588C109.514 33.0588 107.903 31.2087 107.903 28.9265C107.903 26.6442 109.514 24.7941 111.5 24.7941C113.486 24.7941 115.097 26.6442 115.097 28.9265Z" fill="#A6A6A6"/>
<path d="M136.677 28.9265C136.677 31.2087 135.067 33.0588 133.081 33.0588C131.094 33.0588 129.484 31.2087 129.484 28.9265C129.484 26.6442 131.094 24.7941 133.081 24.7941C135.067 24.7941 136.677 26.6442 136.677 28.9265Z" fill="#A6A6A6"/>
<path d="M158.258 28.9265C158.258 31.2087 156.648 33.0588 154.661 33.0588C152.675 33.0588 151.065 31.2087 151.065 28.9265C151.065 26.6442 152.675 24.7941 154.661 24.7941C156.648 24.7941 158.258 26.6442 158.258 28.9265Z" fill="#A6A6A6"/>
<path d="M179.839 28.9265C179.839 31.2087 178.228 33.0588 176.242 33.0588C174.255 33.0588 172.645 31.2087 172.645 28.9265C172.645 26.6442 174.255 24.7941 176.242 24.7941C178.228 24.7941 179.839 26.6442 179.839 28.9265Z" fill="#A6A6A6"/>
<path d="M201.419 28.9265C201.419 31.2087 199.809 33.0588 197.823 33.0588C195.836 33.0588 194.226 31.2087 194.226 28.9265C194.226 26.6442 195.836 24.7941 197.823 24.7941C199.809 24.7941 201.419 26.6442 201.419 28.9265Z" fill="#A6A6A6"/>
<path d="M223 28.9265C223 31.2087 221.39 33.0588 219.403 33.0588C217.417 33.0588 215.806 31.2087 215.806 28.9265C215.806 26.6442 217.417 24.7941 219.403 24.7941C221.39 24.7941 223 26.6442 223 28.9265Z" fill="#A6A6A6"/>
<path d="M7.19355 53.7206C7.19355 56.0028 5.58322 57.8529 3.59677 57.8529C1.61033 57.8529 0 56.0028 0 53.7206C0 51.4384 1.61033 49.5882 3.59677 49.5882C5.58322 49.5882 7.19355 51.4384 7.19355 53.7206Z" fill="#A6A6A6"/>
<path d="M28.7742 53.7206C28.7742 56.0028 27.1639 57.8529 25.1774 57.8529C23.191 57.8529 21.5806 56.0028 21.5806 53.7206C21.5806 51.4384 23.191 49.5882 25.1774 49.5882C27.1639 49.5882 28.7742 51.4384 28.7742 53.7206Z" fill="#A6A6A6"/>
<path d="M50.3548 53.7206C50.3548 56.0028 48.7445 57.8529 46.7581 57.8529C44.7716 57.8529 43.1613 56.0028 43.1613 53.7206C43.1613 51.4384 44.7716 49.5882 46.7581 49.5882C48.7445 49.5882 50.3548 51.4384 50.3548 53.7206Z" fill="#A6A6A6"/>
<path d="M71.9355 53.7206C71.9355 56.0028 70.3252 57.8529 68.3387 57.8529C66.3523 57.8529 64.7419 56.0028 64.7419 53.7206C64.7419 51.4384 66.3523 49.5882 68.3387 49.5882C70.3252 49.5882 71.9355 51.4384 71.9355 53.7206Z" fill="#A6A6A6"/>
<path d="M93.5161 53.7206C93.5161 56.0028 91.9058 57.8529 89.9194 57.8529C87.9329 57.8529 86.3226 56.0028 86.3226 53.7206C86.3226 51.4384 87.9329 49.5882 89.9194 49.5882C91.9058 49.5882 93.5161 51.4384 93.5161 53.7206Z" fill="#A6A6A6"/>
<path d="M115.097 53.7206C115.097 56.0028 113.486 57.8529 111.5 57.8529C109.514 57.8529 107.903 56.0028 107.903 53.7206C107.903 51.4384 109.514 49.5882 111.5 49.5882C113.486 49.5882 115.097 51.4384 115.097 53.7206Z" fill="#A6A6A6"/>
<path d="M136.677 53.7206C136.677 56.0028 135.067 57.8529 133.081 57.8529C131.094 57.8529 129.484 56.0028 129.484 53.7206C129.484 51.4384 131.094 49.5882 133.081 49.5882C135.067 49.5882 136.677 51.4384 136.677 53.7206Z" fill="#A6A6A6"/>
<path d="M158.258 53.7206C158.258 56.0028 156.648 57.8529 154.661 57.8529C152.675 57.8529 151.065 56.0028 151.065 53.7206C151.065 51.4384 152.675 49.5882 154.661 49.5882C156.648 49.5882 158.258 51.4384 158.258 53.7206Z" fill="#A6A6A6"/>
<path d="M179.839 53.7206C179.839 56.0028 178.228 57.8529 176.242 57.8529C174.255 57.8529 172.645 56.0028 172.645 53.7206C172.645 51.4384 174.255 49.5882 176.242 49.5882C178.228 49.5882 179.839 51.4384 179.839 53.7206Z" fill="#A6A6A6"/>
<path d="M201.419 53.7206C201.419 56.0028 199.809 57.8529 197.823 57.8529C195.836 57.8529 194.226 56.0028 194.226 53.7206C194.226 51.4384 195.836 49.5882 197.823 49.5882C199.809 49.5882 201.419 51.4384 201.419 53.7206Z" fill="#A6A6A6"/>
<path d="M223 53.7206C223 56.0028 221.39 57.8529 219.403 57.8529C217.417 57.8529 215.806 56.0028 215.806 53.7206C215.806 51.4384 217.417 49.5882 219.403 49.5882C221.39 49.5882 223 51.4384 223 53.7206Z" fill="#A6A6A6"/>
<path d="M7.19355 78.5147C7.19355 80.7969 5.58322 82.6471 3.59677 82.6471C1.61033 82.6471 0 80.7969 0 78.5147C0 76.2325 1.61033 74.3824 3.59677 74.3824C5.58322 74.3824 7.19355 76.2325 7.19355 78.5147Z" fill="#A6A6A6"/>
<path d="M28.7742 78.5147C28.7742 80.7969 27.1639 82.6471 25.1774 82.6471C23.191 82.6471 21.5806 80.7969 21.5806 78.5147C21.5806 76.2325 23.191 74.3824 25.1774 74.3824C27.1639 74.3824 28.7742 76.2325 28.7742 78.5147Z" fill="#A6A6A6"/>
<path d="M50.3548 78.5147C50.3548 80.7969 48.7445 82.6471 46.7581 82.6471C44.7716 82.6471 43.1613 80.7969 43.1613 78.5147C43.1613 76.2325 44.7716 74.3824 46.7581 74.3824C48.7445 74.3824 50.3548 76.2325 50.3548 78.5147Z" fill="#A6A6A6"/>
<path d="M71.9355 78.5147C71.9355 80.7969 70.3252 82.6471 68.3387 82.6471C66.3523 82.6471 64.7419 80.7969 64.7419 78.5147C64.7419 76.2325 66.3523 74.3824 68.3387 74.3824C70.3252 74.3824 71.9355 76.2325 71.9355 78.5147Z" fill="#A6A6A6"/>
<path d="M93.5161 78.5147C93.5161 80.7969 91.9058 82.6471 89.9194 82.6471C87.9329 82.6471 86.3226 80.7969 86.3226 78.5147C86.3226 76.2325 87.9329 74.3824 89.9194 74.3824C91.9058 74.3824 93.5161 76.2325 93.5161 78.5147Z" fill="#A6A6A6"/>
<path d="M115.097 78.5147C115.097 80.7969 113.486 82.6471 111.5 82.6471C109.514 82.6471 107.903 80.7969 107.903 78.5147C107.903 76.2325 109.514 74.3824 111.5 74.3824C113.486 74.3824 115.097 76.2325 115.097 78.5147Z" fill="#A6A6A6"/>
<path d="M136.677 78.5147C136.677 80.7969 135.067 82.6471 133.081 82.6471C131.094 82.6471 129.484 80.7969 129.484 78.5147C129.484 76.2325 131.094 74.3824 133.081 74.3824C135.067 74.3824 136.677 76.2325 136.677 78.5147Z" fill="#A6A6A6"/>
<path d="M158.258 78.5147C158.258 80.7969 156.648 82.6471 154.661 82.6471C152.675 82.6471 151.065 80.7969 151.065 78.5147C151.065 76.2325 152.675 74.3824 154.661 74.3824C156.648 74.3824 158.258 76.2325 158.258 78.5147Z" fill="#A6A6A6"/>
<path d="M179.839 78.5147C179.839 80.7969 178.228 82.6471 176.242 82.6471C174.255 82.6471 172.645 80.7969 172.645 78.5147C172.645 76.2325 174.255 74.3824 176.242 74.3824C178.228 74.3824 179.839 76.2325 179.839 78.5147Z" fill="#A6A6A6"/>
<path d="M201.419 78.5147C201.419 80.7969 199.809 82.6471 197.823 82.6471C195.836 82.6471 194.226 80.7969 194.226 78.5147C194.226 76.2325 195.836 74.3824 197.823 74.3824C199.809 74.3824 201.419 76.2325 201.419 78.5147Z" fill="#A6A6A6"/>
<path d="M223 78.5147C223 80.7969 221.39 82.6471 219.403 82.6471C217.417 82.6471 215.806 80.7969 215.806 78.5147C215.806 76.2325 217.417 74.3824 219.403 74.3824C221.39 74.3824 223 76.2325 223 78.5147Z" fill="#A6A6A6"/>
<path d="M7.19355 103.309C7.19355 105.591 5.58322 107.441 3.59677 107.441C1.61033 107.441 0 105.591 0 103.309C0 101.027 1.61033 99.1765 3.59677 99.1765C5.58322 99.1765 7.19355 101.027 7.19355 103.309Z" fill="#A6A6A6"/>
<path d="M28.7742 103.309C28.7742 105.591 27.1639 107.441 25.1774 107.441C23.191 107.441 21.5806 105.591 21.5806 103.309C21.5806 101.027 23.191 99.1765 25.1774 99.1765C27.1639 99.1765 28.7742 101.027 28.7742 103.309Z" fill="#A6A6A6"/>
<path d="M50.3548 103.309C50.3548 105.591 48.7445 107.441 46.7581 107.441C44.7716 107.441 43.1613 105.591 43.1613 103.309C43.1613 101.027 44.7716 99.1765 46.7581 99.1765C48.7445 99.1765 50.3548 101.027 50.3548 103.309Z" fill="#A6A6A6"/>
<path d="M71.9355 103.309C71.9355 105.591 70.3252 107.441 68.3387 107.441C66.3523 107.441 64.7419 105.591 64.7419 103.309C64.7419 101.027 66.3523 99.1765 68.3387 99.1765C70.3252 99.1765 71.9355 101.027 71.9355 103.309Z" fill="#A6A6A6"/>
<path d="M93.5161 103.309C93.5161 105.591 91.9058 107.441 89.9194 107.441C87.9329 107.441 86.3226 105.591 86.3226 103.309C86.3226 101.027 87.9329 99.1765 89.9194 99.1765C91.9058 99.1765 93.5161 101.027 93.5161 103.309Z" fill="#A6A6A6"/>
<path d="M115.097 103.309C115.097 105.591 113.486 107.441 111.5 107.441C109.514 107.441 107.903 105.591 107.903 103.309C107.903 101.027 109.514 99.1765 111.5 99.1765C113.486 99.1765 115.097 101.027 115.097 103.309Z" fill="#A6A6A6"/>
<path d="M136.677 103.309C136.677 105.591 135.067 107.441 133.081 107.441C131.094 107.441 129.484 105.591 129.484 103.309C129.484 101.027 131.094 99.1765 133.081 99.1765C135.067 99.1765 136.677 101.027 136.677 103.309Z" fill="#A6A6A6"/>
<path d="M158.258 103.309C158.258 105.591 156.648 107.441 154.661 107.441C152.675 107.441 151.065 105.591 151.065 103.309C151.065 101.027 152.675 99.1765 154.661 99.1765C156.648 99.1765 158.258 101.027 158.258 103.309Z" fill="#A6A6A6"/>
<path d="M179.839 103.309C179.839 105.591 178.228 107.441 176.242 107.441C174.255 107.441 172.645 105.591 172.645 103.309C172.645 101.027 174.255 99.1765 176.242 99.1765C178.228 99.1765 179.839 101.027 179.839 103.309Z" fill="#A6A6A6"/>
<path d="M201.419 103.309C201.419 105.591 199.809 107.441 197.823 107.441C195.836 107.441 194.226 105.591 194.226 103.309C194.226 101.027 195.836 99.1765 197.823 99.1765C199.809 99.1765 201.419 101.027 201.419 103.309Z" fill="#A6A6A6"/>
<path d="M223 103.309C223 105.591 221.39 107.441 219.403 107.441C217.417 107.441 215.806 105.591 215.806 103.309C215.806 101.027 217.417 99.1765 219.403 99.1765C221.39 99.1765 223 101.027 223 103.309Z" fill="#A6A6A6"/>
<path d="M7.19355 128.103C7.19355 130.385 5.58322 132.235 3.59677 132.235C1.61033 132.235 0 130.385 0 128.103C0 125.821 1.61033 123.971 3.59677 123.971C5.58322 123.971 7.19355 125.821 7.19355 128.103Z" fill="#A6A6A6"/>
<path d="M28.7742 128.103C28.7742 130.385 27.1639 132.235 25.1774 132.235C23.191 132.235 21.5806 130.385 21.5806 128.103C21.5806 125.821 23.191 123.971 25.1774 123.971C27.1639 123.971 28.7742 125.821 28.7742 128.103Z" fill="#A6A6A6"/>
<path d="M50.3548 128.103C50.3548 130.385 48.7445 132.235 46.7581 132.235C44.7716 132.235 43.1613 130.385 43.1613 128.103C43.1613 125.821 44.7716 123.971 46.7581 123.971C48.7445 123.971 50.3548 125.821 50.3548 128.103Z" fill="#A6A6A6"/>
<path d="M71.9355 128.103C71.9355 130.385 70.3252 132.235 68.3387 132.235C66.3523 132.235 64.7419 130.385 64.7419 128.103C64.7419 125.821 66.3523 123.971 68.3387 123.971C70.3252 123.971 71.9355 125.821 71.9355 128.103Z" fill="#A6A6A6"/>
<path d="M93.5161 128.103C93.5161 130.385 91.9058 132.235 89.9194 132.235C87.9329 132.235 86.3226 130.385 86.3226 128.103C86.3226 125.821 87.9329 123.971 89.9194 123.971C91.9058 123.971 93.5161 125.821 93.5161 128.103Z" fill="#A6A6A6"/>
<path d="M115.097 128.103C115.097 130.385 113.486 132.235 111.5 132.235C109.514 132.235 107.903 130.385 107.903 128.103C107.903 125.821 109.514 123.971 111.5 123.971C113.486 123.971 115.097 125.821 115.097 128.103Z" fill="#A6A6A6"/>
<path d="M136.677 128.103C136.677 130.385 135.067 132.235 133.081 132.235C131.094 132.235 129.484 130.385 129.484 128.103C129.484 125.821 131.094 123.971 133.081 123.971C135.067 123.971 136.677 125.821 136.677 128.103Z" fill="#A6A6A6"/>
<path d="M158.258 128.103C158.258 130.385 156.648 132.235 154.661 132.235C152.675 132.235 151.065 130.385 151.065 128.103C151.065 125.821 152.675 123.971 154.661 123.971C156.648 123.971 158.258 125.821 158.258 128.103Z" fill="#A6A6A6"/>
<path d="M179.839 128.103C179.839 130.385 178.228 132.235 176.242 132.235C174.255 132.235 172.645 130.385 172.645 128.103C172.645 125.821 174.255 123.971 176.242 123.971C178.228 123.971 179.839 125.821 179.839 128.103Z" fill="#A6A6A6"/>
<path d="M201.419 128.103C201.419 130.385 199.809 132.235 197.823 132.235C195.836 132.235 194.226 130.385 194.226 128.103C194.226 125.821 195.836 123.971 197.823 123.971C199.809 123.971 201.419 125.821 201.419 128.103Z" fill="#A6A6A6"/>
<path d="M223 128.103C223 130.385 221.39 132.235 219.403 132.235C217.417 132.235 215.806 130.385 215.806 128.103C215.806 125.821 217.417 123.971 219.403 123.971C221.39 123.971 223 125.821 223 128.103Z" fill="#A6A6A6"/>
<path d="M7.19355 152.897C7.19355 155.179 5.58322 157.029 3.59677 157.029C1.61033 157.029 0 155.179 0 152.897C0 150.615 1.61033 148.765 3.59677 148.765C5.58322 148.765 7.19355 150.615 7.19355 152.897Z" fill="#A6A6A6"/>
<path d="M28.7742 152.897C28.7742 155.179 27.1639 157.029 25.1774 157.029C23.191 157.029 21.5806 155.179 21.5806 152.897C21.5806 150.615 23.191 148.765 25.1774 148.765C27.1639 148.765 28.7742 150.615 28.7742 152.897Z" fill="#A6A6A6"/>
<path d="M50.3548 152.897C50.3548 155.179 48.7445 157.029 46.7581 157.029C44.7716 157.029 43.1613 155.179 43.1613 152.897C43.1613 150.615 44.7716 148.765 46.7581 148.765C48.7445 148.765 50.3548 150.615 50.3548 152.897Z" fill="#A6A6A6"/>
<path d="M71.9355 152.897C71.9355 155.179 70.3252 157.029 68.3387 157.029C66.3523 157.029 64.7419 155.179 64.7419 152.897C64.7419 150.615 66.3523 148.765 68.3387 148.765C70.3252 148.765 71.9355 150.615 71.9355 152.897Z" fill="#A6A6A6"/>
<path d="M93.5161 152.897C93.5161 155.179 91.9058 157.029 89.9194 157.029C87.9329 157.029 86.3226 155.179 86.3226 152.897C86.3226 150.615 87.9329 148.765 89.9194 148.765C91.9058 148.765 93.5161 150.615 93.5161 152.897Z" fill="#A6A6A6"/>
<path d="M115.097 152.897C115.097 155.179 113.486 157.029 111.5 157.029C109.514 157.029 107.903 155.179 107.903 152.897C107.903 150.615 109.514 148.765 111.5 148.765C113.486 148.765 115.097 150.615 115.097 152.897Z" fill="#A6A6A6"/>
<path d="M136.677 152.897C136.677 155.179 135.067 157.029 133.081 157.029C131.094 157.029 129.484 155.179 129.484 152.897C129.484 150.615 131.094 148.765 133.081 148.765C135.067 148.765 136.677 150.615 136.677 152.897Z" fill="#A6A6A6"/>
<path d="M158.258 152.897C158.258 155.179 156.648 157.029 154.661 157.029C152.675 157.029 151.065 155.179 151.065 152.897C151.065 150.615 152.675 148.765 154.661 148.765C156.648 148.765 158.258 150.615 158.258 152.897Z" fill="#A6A6A6"/>
<path d="M179.839 152.897C179.839 155.179 178.228 157.029 176.242 157.029C174.255 157.029 172.645 155.179 172.645 152.897C172.645 150.615 174.255 148.765 176.242 148.765C178.228 148.765 179.839 150.615 179.839 152.897Z" fill="#A6A6A6"/>
<path d="M201.419 152.897C201.419 155.179 199.809 157.029 197.823 157.029C195.836 157.029 194.226 155.179 194.226 152.897C194.226 150.615 195.836 148.765 197.823 148.765C199.809 148.765 201.419 150.615 201.419 152.897Z" fill="#A6A6A6"/>
<path d="M223 152.897C223 155.179 221.39 157.029 219.403 157.029C217.417 157.029 215.806 155.179 215.806 152.897C215.806 150.615 217.417 148.765 219.403 148.765C221.39 148.765 223 150.615 223 152.897Z" fill="#A6A6A6"/>
<path d="M7.19355 177.691C7.19355 179.973 5.58322 181.824 3.59677 181.824C1.61033 181.824 0 179.973 0 177.691C0 175.409 1.61033 173.559 3.59677 173.559C5.58322 173.559 7.19355 175.409 7.19355 177.691Z" fill="#A6A6A6"/>
<path d="M28.7742 177.691C28.7742 179.973 27.1639 181.824 25.1774 181.824C23.191 181.824 21.5806 179.973 21.5806 177.691C21.5806 175.409 23.191 173.559 25.1774 173.559C27.1639 173.559 28.7742 175.409 28.7742 177.691Z" fill="#A6A6A6"/>
<path d="M50.3548 177.691C50.3548 179.973 48.7445 181.824 46.7581 181.824C44.7716 181.824 43.1613 179.973 43.1613 177.691C43.1613 175.409 44.7716 173.559 46.7581 173.559C48.7445 173.559 50.3548 175.409 50.3548 177.691Z" fill="#A6A6A6"/>
<path d="M71.9355 177.691C71.9355 179.973 70.3252 181.824 68.3387 181.824C66.3523 181.824 64.7419 179.973 64.7419 177.691C64.7419 175.409 66.3523 173.559 68.3387 173.559C70.3252 173.559 71.9355 175.409 71.9355 177.691Z" fill="#A6A6A6"/>
<path d="M93.5161 177.691C93.5161 179.973 91.9058 181.824 89.9194 181.824C87.9329 181.824 86.3226 179.973 86.3226 177.691C86.3226 175.409 87.9329 173.559 89.9194 173.559C91.9058 173.559 93.5161 175.409 93.5161 177.691Z" fill="#A6A6A6"/>
<path d="M115.097 177.691C115.097 179.973 113.486 181.824 111.5 181.824C109.514 181.824 107.903 179.973 107.903 177.691C107.903 175.409 109.514 173.559 111.5 173.559C113.486 173.559 115.097 175.409 115.097 177.691Z" fill="#A6A6A6"/>
<path d="M136.677 177.691C136.677 179.973 135.067 181.824 133.081 181.824C131.094 181.824 129.484 179.973 129.484 177.691C129.484 175.409 131.094 173.559 133.081 173.559C135.067 173.559 136.677 175.409 136.677 177.691Z" fill="#A6A6A6"/>
<path d="M158.258 177.691C158.258 179.973 156.648 181.824 154.661 181.824C152.675 181.824 151.065 179.973 151.065 177.691C151.065 175.409 152.675 173.559 154.661 173.559C156.648 173.559 158.258 175.409 158.258 177.691Z" fill="#A6A6A6"/>
<path d="M179.839 177.691C179.839 179.973 178.228 181.824 176.242 181.824C174.255 181.824 172.645 179.973 172.645 177.691C172.645 175.409 174.255 173.559 176.242 173.559C178.228 173.559 179.839 175.409 179.839 177.691Z" fill="#A6A6A6"/>
<path d="M201.419 177.691C201.419 179.973 199.809 181.824 197.823 181.824C195.836 181.824 194.226 179.973 194.226 177.691C194.226 175.409 195.836 173.559 197.823 173.559C199.809 173.559 201.419 175.409 201.419 177.691Z" fill="#A6A6A6"/>
<path d="M223 177.691C223 179.973 221.39 181.824 219.403 181.824C217.417 181.824 215.806 179.973 215.806 177.691C215.806 175.409 217.417 173.559 219.403 173.559C221.39 173.559 223 175.409 223 177.691Z" fill="#A6A6A6"/>
<path d="M7.19355 202.485C7.19355 204.768 5.58322 206.618 3.59677 206.618C1.61033 206.618 0 204.768 0 202.485C0 200.203 1.61033 198.353 3.59677 198.353C5.58322 198.353 7.19355 200.203 7.19355 202.485Z" fill="#A6A6A6"/>
<path d="M28.7742 202.485C28.7742 204.768 27.1639 206.618 25.1774 206.618C23.191 206.618 21.5806 204.768 21.5806 202.485C21.5806 200.203 23.191 198.353 25.1774 198.353C27.1639 198.353 28.7742 200.203 28.7742 202.485Z" fill="#A6A6A6"/>
<path d="M50.3548 202.485C50.3548 204.768 48.7445 206.618 46.7581 206.618C44.7716 206.618 43.1613 204.768 43.1613 202.485C43.1613 200.203 44.7716 198.353 46.7581 198.353C48.7445 198.353 50.3548 200.203 50.3548 202.485Z" fill="#A6A6A6"/>
<path d="M71.9355 202.485C71.9355 204.768 70.3252 206.618 68.3387 206.618C66.3523 206.618 64.7419 204.768 64.7419 202.485C64.7419 200.203 66.3523 198.353 68.3387 198.353C70.3252 198.353 71.9355 200.203 71.9355 202.485Z" fill="#A6A6A6"/>
<path d="M93.5161 202.485C93.5161 204.768 91.9058 206.618 89.9194 206.618C87.9329 206.618 86.3226 204.768 86.3226 202.485C86.3226 200.203 87.9329 198.353 89.9194 198.353C91.9058 198.353 93.5161 200.203 93.5161 202.485Z" fill="#A6A6A6"/>
<path d="M115.097 202.485C115.097 204.768 113.486 206.618 111.5 206.618C109.514 206.618 107.903 204.768 107.903 202.485C107.903 200.203 109.514 198.353 111.5 198.353C113.486 198.353 115.097 200.203 115.097 202.485Z" fill="#A6A6A6"/>
<path d="M136.677 202.485C136.677 204.768 135.067 206.618 133.081 206.618C131.094 206.618 129.484 204.768 129.484 202.485C129.484 200.203 131.094 198.353 133.081 198.353C135.067 198.353 136.677 200.203 136.677 202.485Z" fill="#A6A6A6"/>
<path d="M158.258 202.485C158.258 204.768 156.648 206.618 154.661 206.618C152.675 206.618 151.065 204.768 151.065 202.485C151.065 200.203 152.675 198.353 154.661 198.353C156.648 198.353 158.258 200.203 158.258 202.485Z" fill="#A6A6A6"/>
<path d="M179.839 202.485C179.839 204.768 178.228 206.618 176.242 206.618C174.255 206.618 172.645 204.768 172.645 202.485C172.645 200.203 174.255 198.353 176.242 198.353C178.228 198.353 179.839 200.203 179.839 202.485Z" fill="#A6A6A6"/>
<path d="M201.419 202.485C201.419 204.768 199.809 206.618 197.823 206.618C195.836 206.618 194.226 204.768 194.226 202.485C194.226 200.203 195.836 198.353 197.823 198.353C199.809 198.353 201.419 200.203 201.419 202.485Z" fill="#A6A6A6"/>
<path d="M223 202.485C223 204.768 221.39 206.618 219.403 206.618C217.417 206.618 215.806 204.768 215.806 202.485C215.806 200.203 217.417 198.353 219.403 198.353C221.39 198.353 223 200.203 223 202.485Z" fill="#A6A6A6"/>
<path d="M7.19355 227.279C7.19355 229.562 5.58322 231.412 3.59677 231.412C1.61033 231.412 0 229.562 0 227.279C0 224.997 1.61033 223.147 3.59677 223.147C5.58322 223.147 7.19355 224.997 7.19355 227.279Z" fill="#A6A6A6"/>
<path d="M28.7742 227.279C28.7742 229.562 27.1639 231.412 25.1774 231.412C23.191 231.412 21.5806 229.562 21.5806 227.279C21.5806 224.997 23.191 223.147 25.1774 223.147C27.1639 223.147 28.7742 224.997 28.7742 227.279Z" fill="#A6A6A6"/>
<path d="M50.3548 227.279C50.3548 229.562 48.7445 231.412 46.7581 231.412C44.7716 231.412 43.1613 229.562 43.1613 227.279C43.1613 224.997 44.7716 223.147 46.7581 223.147C48.7445 223.147 50.3548 224.997 50.3548 227.279Z" fill="#A6A6A6"/>
<path d="M71.9355 227.279C71.9355 229.562 70.3252 231.412 68.3387 231.412C66.3523 231.412 64.7419 229.562 64.7419 227.279C64.7419 224.997 66.3523 223.147 68.3387 223.147C70.3252 223.147 71.9355 224.997 71.9355 227.279Z" fill="#A6A6A6"/>
<path d="M93.5161 227.279C93.5161 229.562 91.9058 231.412 89.9194 231.412C87.9329 231.412 86.3226 229.562 86.3226 227.279C86.3226 224.997 87.9329 223.147 89.9194 223.147C91.9058 223.147 93.5161 224.997 93.5161 227.279Z" fill="#A6A6A6"/>
<path d="M115.097 227.279C115.097 229.562 113.486 231.412 111.5 231.412C109.514 231.412 107.903 229.562 107.903 227.279C107.903 224.997 109.514 223.147 111.5 223.147C113.486 223.147 115.097 224.997 115.097 227.279Z" fill="#A6A6A6"/>
<path d="M136.677 227.279C136.677 229.562 135.067 231.412 133.081 231.412C131.094 231.412 129.484 229.562 129.484 227.279C129.484 224.997 131.094 223.147 133.081 223.147C135.067 223.147 136.677 224.997 136.677 227.279Z" fill="#A6A6A6"/>
<path d="M158.258 227.279C158.258 229.562 156.648 231.412 154.661 231.412C152.675 231.412 151.065 229.562 151.065 227.279C151.065 224.997 152.675 223.147 154.661 223.147C156.648 223.147 158.258 224.997 158.258 227.279Z" fill="#A6A6A6"/>
<path d="M179.839 227.279C179.839 229.562 178.228 231.412 176.242 231.412C174.255 231.412 172.645 229.562 172.645 227.279C172.645 224.997 174.255 223.147 176.242 223.147C178.228 223.147 179.839 224.997 179.839 227.279Z" fill="#A6A6A6"/>
<path d="M201.419 227.279C201.419 229.562 199.809 231.412 197.823 231.412C195.836 231.412 194.226 229.562 194.226 227.279C194.226 224.997 195.836 223.147 197.823 223.147C199.809 223.147 201.419 224.997 201.419 227.279Z" fill="#A6A6A6"/>
<path d="M223 227.279C223 229.562 221.39 231.412 219.403 231.412C217.417 231.412 215.806 229.562 215.806 227.279C215.806 224.997 217.417 223.147 219.403 223.147C221.39 223.147 223 224.997 223 227.279Z" fill="#A6A6A6"/>
<path d="M7.19355 252.074C7.19355 254.356 5.58322 256.206 3.59677 256.206C1.61033 256.206 0 254.356 0 252.074C0 249.791 1.61033 247.941 3.59677 247.941C5.58322 247.941 7.19355 249.791 7.19355 252.074Z" fill="#A6A6A6"/>
<path d="M28.7742 252.074C28.7742 254.356 27.1639 256.206 25.1774 256.206C23.191 256.206 21.5806 254.356 21.5806 252.074C21.5806 249.791 23.191 247.941 25.1774 247.941C27.1639 247.941 28.7742 249.791 28.7742 252.074Z" fill="#A6A6A6"/>
<path d="M50.3548 252.074C50.3548 254.356 48.7445 256.206 46.7581 256.206C44.7716 256.206 43.1613 254.356 43.1613 252.074C43.1613 249.791 44.7716 247.941 46.7581 247.941C48.7445 247.941 50.3548 249.791 50.3548 252.074Z" fill="#A6A6A6"/>
<path d="M71.9355 252.074C71.9355 254.356 70.3252 256.206 68.3387 256.206C66.3523 256.206 64.7419 254.356 64.7419 252.074C64.7419 249.791 66.3523 247.941 68.3387 247.941C70.3252 247.941 71.9355 249.791 71.9355 252.074Z" fill="#A6A6A6"/>
<path d="M93.5161 252.074C93.5161 254.356 91.9058 256.206 89.9194 256.206C87.9329 256.206 86.3226 254.356 86.3226 252.074C86.3226 249.791 87.9329 247.941 89.9194 247.941C91.9058 247.941 93.5161 249.791 93.5161 252.074Z" fill="#A6A6A6"/>
<path d="M115.097 252.074C115.097 254.356 113.486 256.206 111.5 256.206C109.514 256.206 107.903 254.356 107.903 252.074C107.903 249.791 109.514 247.941 111.5 247.941C113.486 247.941 115.097 249.791 115.097 252.074Z" fill="#A6A6A6"/>
<path d="M136.677 252.074C136.677 254.356 135.067 256.206 133.081 256.206C131.094 256.206 129.484 254.356 129.484 252.074C129.484 249.791 131.094 247.941 133.081 247.941C135.067 247.941 136.677 249.791 136.677 252.074Z" fill="#A6A6A6"/>
<path d="M158.258 252.074C158.258 254.356 156.648 256.206 154.661 256.206C152.675 256.206 151.065 254.356 151.065 252.074C151.065 249.791 152.675 247.941 154.661 247.941C156.648 247.941 158.258 249.791 158.258 252.074Z" fill="#A6A6A6"/>
<path d="M179.839 252.074C179.839 254.356 178.228 256.206 176.242 256.206C174.255 256.206 172.645 254.356 172.645 252.074C172.645 249.791 174.255 247.941 176.242 247.941C178.228 247.941 179.839 249.791 179.839 252.074Z" fill="#A6A6A6"/>
<path d="M201.419 252.074C201.419 254.356 199.809 256.206 197.823 256.206C195.836 256.206 194.226 254.356 194.226 252.074C194.226 249.791 195.836 247.941 197.823 247.941C199.809 247.941 201.419 249.791 201.419 252.074Z" fill="#A6A6A6"/>
<path d="M223 252.074C223 254.356 221.39 256.206 219.403 256.206C217.417 256.206 215.806 254.356 215.806 252.074C215.806 249.791 217.417 247.941 219.403 247.941C221.39 247.941 223 249.791 223 252.074Z" fill="#A6A6A6"/>
<path d="M7.19355 276.868C7.19355 279.15 5.58322 281 3.59677 281C1.61033 281 0 279.15 0 276.868C0 274.585 1.61033 272.735 3.59677 272.735C5.58322 272.735 7.19355 274.585 7.19355 276.868Z" fill="#A6A6A6"/>
<path d="M28.7742 276.868C28.7742 279.15 27.1639 281 25.1774 281C23.191 281 21.5806 279.15 21.5806 276.868C21.5806 274.585 23.191 272.735 25.1774 272.735C27.1639 272.735 28.7742 274.585 28.7742 276.868Z" fill="#A6A6A6"/>
<path d="M50.3548 276.868C50.3548 279.15 48.7445 281 46.7581 281C44.7716 281 43.1613 279.15 43.1613 276.868C43.1613 274.585 44.7716 272.735 46.7581 272.735C48.7445 272.735 50.3548 274.585 50.3548 276.868Z" fill="#A6A6A6"/>
<path d="M71.9355 276.868C71.9355 279.15 70.3252 281 68.3387 281C66.3523 281 64.7419 279.15 64.7419 276.868C64.7419 274.585 66.3523 272.735 68.3387 272.735C70.3252 272.735 71.9355 274.585 71.9355 276.868Z" fill="#A6A6A6"/>
<path d="M93.5161 276.868C93.5161 279.15 91.9058 281 89.9194 281C87.9329 281 86.3226 279.15 86.3226 276.868C86.3226 274.585 87.9329 272.735 89.9194 272.735C91.9058 272.735 93.5161 274.585 93.5161 276.868Z" fill="#A6A6A6"/>
<path d="M115.097 276.868C115.097 279.15 113.486 281 111.5 281C109.514 281 107.903 279.15 107.903 276.868C107.903 274.585 109.514 272.735 111.5 272.735C113.486 272.735 115.097 274.585 115.097 276.868Z" fill="#A6A6A6"/>
<path d="M136.677 276.868C136.677 279.15 135.067 281 133.081 281C131.094 281 129.484 279.15 129.484 276.868C129.484 274.585 131.094 272.735 133.081 272.735C135.067 272.735 136.677 274.585 136.677 276.868Z" fill="#A6A6A6"/>
<path d="M158.258 276.868C158.258 279.15 156.648 281 154.661 281C152.675 281 151.065 279.15 151.065 276.868C151.065 274.585 152.675 272.735 154.661 272.735C156.648 272.735 158.258 274.585 158.258 276.868Z" fill="#A6A6A6"/>
<path d="M179.839 276.868C179.839 279.15 178.228 281 176.242 281C174.255 281 172.645 279.15 172.645 276.868C172.645 274.585 174.255 272.735 176.242 272.735C178.228 272.735 179.839 274.585 179.839 276.868Z" fill="#A6A6A6"/>
<path d="M201.419 276.868C201.419 279.15 199.809 281 197.823 281C195.836 281 194.226 279.15 194.226 276.868C194.226 274.585 195.836 272.735 197.823 272.735C199.809 272.735 201.419 274.585 201.419 276.868Z" fill="#A6A6A6"/>
<path d="M223 276.868C223 279.15 221.39 281 219.403 281C217.417 281 215.806 279.15 215.806 276.868C215.806 274.585 217.417 272.735 219.403 272.735C221.39 272.735 223 274.585 223 276.868Z" fill="#A6A6A6"/>
</svg>
